<svg xmlns="http://www.w3.org/2000/svg" viewBox="0 0 285 285">
  <g fill="#135af7" fill-rule="evenodd" stroke-width="0">
    <path d="M284.676 142.852a174.389 174.389 0 0 0-.713-13.823 143.14 143.14 0 0 0-18.487-59.393q-18.688-32.256-50.688-50.944a132.912 132.912 0 0 0-27.394-12.1A149.956 149.956 0 0 0 142.34.004q-40.448 0-72.704 18.688Q37.38 37.38 18.692 69.636A134.361 134.361 0 0 0 6.25 98.401a153.621 153.621 0 0 0-6.246 44.451 171.986 171.986 0 0 0 .444 12.44 142.061 142.061 0 0 0 17.732 60.264q18.176 32.256 49.408 50.944a128.228 128.228 0 0 0 25.65 11.748 142.457 142.457 0 0 0 45.006 6.94q37.376 0 66.816-17.152Q234.5 250.884 244.8 232l-.06 31.172q0 8.704 5.632 14.08a18.709 18.709 0 0 0 7.539 4.419 23.122 23.122 0 0 0 6.797.957 25.975 25.975 0 0 0 2.709-.138 19.242 19.242 0 0 0 11.627-5.238q5.632-5.376 5.632-14.08v-120.32ZM142.34 249.348a109.015 109.015 0 0 0 32.197-4.62 95.722 95.722 0 0 0 20.795-9.204q23.296-13.824 36.864-38.144 13.568-24.32 13.568-54.528a118.763 118.763 0 0 0-4.278-32.401 101.621 101.621 0 0 0-9.29-22.383q-13.568-24.064-36.864-38.144a98.244 98.244 0 0 0-44.767-13.802 119.889 119.889 0 0 0-8.225-.278q-29.184 0-52.736 14.08-23.552 14.08-37.376 38.144a104.582 104.582 0 0 0-13.337 43.484 128.78 128.78 0 0 0-.487 11.3q0 30.208 13.824 54.528t37.376 38.144a101.344 101.344 0 0 0 48.885 13.763 120.919 120.919 0 0 0 3.851.061Z"/>
    <circle cx="142" cy="142" r="30" fill="#00d280"/>
  </g>
</svg>
