<?xml version="1.0" standalone="no"?>
<!DOCTYPE svg PUBLIC "-//W3C//DTD SVG 20010904//EN"
 "http://www.w3.org/TR/2001/REC-SVG-20010904/DTD/svg10.dtd">
<svg version="1.0" xmlns="http://www.w3.org/2000/svg"
 width="700.000000pt" height="700.000000pt" viewBox="0 0 700.000000 700.000000"
 preserveAspectRatio="xMidYMid meet">
<metadata>
Created by potrace 1.14, written by Peter Selinger 2001-2017
</metadata>
<g transform="translate(0.000000,700.000000) scale(0.100000,-0.100000)"
fill="#000000" stroke="none">
<path d="M3248 6995 c-2 -1 -46 -6 -98 -10 -52 -3 -97 -8 -100 -10 -3 -1 -34
-6 -70 -9 -36 -4 -72 -8 -80 -11 -8 -2 -36 -6 -62 -10 -121 -15 -410 -90 -568
-147 -180 -65 -419 -174 -540 -246 -19 -12 -48 -29 -65 -38 -102 -57 -326
-216 -460 -327 -102 -85 -356 -346 -445 -459 -316 -398 -526 -818 -645 -1291
-19 -77 -37 -154 -40 -171 -3 -17 -9 -51 -15 -76 -8 -42 -13 -70 -26 -175 -2
-22 -7 -53 -9 -70 -27 -168 -27 -757 0 -915 2 -14 6 -47 9 -75 24 -231 106
-547 213 -825 73 -189 252 -538 308 -599 8 -10 15 -21 15 -25 0 -4 38 -60 84
-124 365 -506 834 -884 1401 -1127 149 -64 393 -142 530 -171 11 -2 34 -7 50
-11 17 -4 32 -7 35 -8 3 -1 30 -5 60 -10 30 -5 57 -9 60 -10 3 -1 28 -5 55 -9
28 -4 61 -10 75 -12 164 -26 905 -26 949 0 3 2 31 7 61 10 70 8 89 12 218 40
418 94 737 233 1132 495 47 31 87 58 90 61 3 3 39 30 80 61 213 160 397 349
509 524 l51 80 0 -50 c0 -27 1 -212 1 -410 0 -273 3 -374 14 -419 37 -154 137
-268 287 -326 66 -26 221 -37 301 -21 182 34 328 174 366 351 9 41 12 445 11
1630 0 866 -2 1602 -4 1635 -5 88 -18 226 -30 320 -12 89 -19 131 -22 136 -1
3 -6 28 -9 55 -6 45 -62 277 -85 349 -133 429 -306 769 -571 1120 -37 50 -81
106 -98 125 -110 124 -209 227 -299 310 -57 52 -109 100 -115 106 -68 62 -351
260 -482 335 -340 198 -762 349 -1129 405 -21 3 -48 7 -59 10 -26 5 -155 22
-227 30 -54 6 -606 14 -612 9z m548 -888 c11 -3 45 -8 75 -11 30 -3 65 -8 79
-11 14 -3 50 -9 80 -15 281 -51 633 -199 880 -369 195 -134 442 -361 555 -511
27 -36 52 -67 55 -70 4 -3 41 -57 83 -121 222 -338 357 -709 412 -1136 19
-142 24 -445 11 -613 -65 -857 -522 -1617 -1219 -2028 -445 -263 -945 -375
-1507 -339 -115 7 -131 9 -285 33 -138 22 -371 91 -525 156 -664 281 -1164
824 -1408 1533 -44 128 -97 359 -116 510 -25 196 -26 576 -1 750 25 177 29
199 59 325 47 190 148 449 235 601 23 39 41 73 41 76 0 12 155 236 217 313 83
104 271 294 375 378 42 34 128 96 190 137 62 41 122 82 134 89 43 30 312 155
394 184 82 30 215 70 250 77 10 2 60 12 111 23 52 11 144 25 204 32 61 6 119
13 130 14 34 4 469 -2 491 -7z"/>
<path d="M3408 4245 c-2 -2 -28 -6 -57 -10 -221 -28 -456 -223 -549 -455 -144
-358 28 -778 383 -937 110 -50 178 -64 305 -65 266 -3 533 159 648 395 41 83
53 111 58 136 1 7 7 34 13 60 51 218 -28 486 -193 654 -105 108 -216 171 -365
206 -66 16 -232 27 -243 16z"/>
</g>
</svg>
